PathFileType	4	(X/Y/Z)	C:\Users\Basilio\Documents\Thesis Gigler\squatting_fais\c3dfiles\073\SJ_pre1\markers_experimental.trc
DataRate	CameraRate	NumFrames	NumMarkers	Units	OrigDataRate	OrigDataStartFrame	OrigNumFrames
200.000000	200.000000	4	61	mm	200.000000	0	1383
Frame#	Time	FHD			LBHD			RBHD			C7			T10			CLAV			LSHO			LUUPA			LMUPA			LDUPA			LLEP			LMEP			LRAD			LUL			LRFIN			RSHO			RUPA1			RMUPA			RDUPA			RLEP			RMEP			RRAD			RUL			RUFIN			LASI			RASI			USACR			LSACR			RSACR			LTHI1			LTHI2			LTHI3			LTHI4			LLFC			LMFC			LTIB1			LTIB2			LTIB3			LTIB4			LLMAL			LMMAL			LHEE			LMT1			LMT2			LMT5			RTHI			RTHI2			RTHI3			RTHI4			RLFC			RMFC			RTIB1			RTIB2			RTIB3			RTIB4			RLMAL			RMMAL			RHEE			RMT1			RMT2			RMT5			
		X1	Y1	Z1	X2	Y2	Z2	X3	Y3	Z3	X4	Y4	Z4	X5	Y5	Z5	X6	Y6	Z6	X7	Y7	Z7	X8	Y8	Z8	X9	Y9	Z9	X10	Y10	Z10	X11	Y11	Z11	X12	Y12	Z12	X13	Y13	Z13	X14	Y14	Z14	X15	Y15	Z15	X16	Y16	Z16	X17	Y17	Z17	X18	Y18	Z18	X19	Y19	Z19	X20	Y20	Z20	X21	Y21	Z21	X22	Y22	Z22	X23	Y23	Z23	X24	Y24	Z24	X25	Y25	Z25	X26	Y26	Z26	X27	Y27	Z27	X28	Y28	Z28	X29	Y29	Z29	X30	Y30	Z30	X31	Y31	Z31	X32	Y32	Z32	X33	Y33	Z33	X34	Y34	Z34	X35	Y35	Z35	X36	Y36	Z36	X37	Y37	Z37	X38	Y38	Z38	X39	Y39	Z39	X40	Y40	Z40	X41	Y41	Z41	X42	Y42	Z42	X43	Y43	Z43	X44	Y44	Z44	X45	Y45	Z45	X46	Y46	Z46	X47	Y47	Z47	X48	Y48	Z48	X49	Y49	Z49	X50	Y50	Z50	X51	Y51	Z51	X52	Y52	Z52	X53	Y53	Z53	X54	Y54	Z54	X55	Y55	Z55	X56	Y56	Z56	X57	Y57	Z57	X58	Y58	Z58	X59	Y59	Z59	X60	Y60	Z60	X61	Y61	Z61	

1	0	-235.7367858886719	1690.983764648438	-868.434265136719	-359.4154663085938	1634.869262695313	-904.5691528320315	-388.0738830566407	1607.14013671875	-773.876159667969	-401.0666503906251	1525.23486328125	-838.2873535156252	-457.2102355957032	1187.390380859375	-858.4016723632815	-281.4140930175782	1432.637084960938	-841.9429321289065	-310.3919982910157	1468.587768554688	-1015.419372558594	-393.7802124023439	1383.428955078125	-1133.927368164063	-375.7597045898438	1336.354858398438	-1137.887939453125	-425.3284912109376	1335.3935546875	-1175.172973632813	-461.4788208007814	1250.439208984375	-1225.242431640625	-530.4653930664064	1233.984985351563	-1181.282104492188	-383.4252014160157	1037.869995117188	-1086.14306640625	-348.8249206542969	1019.625366210938	-1149.453125	-339.4011840820313	1035.999267578125	-1045.08447265625	-299.1953430175782	1445.198852539063	-671.0848388671876	-381.6785583496094	1354.919799804688	-533.0215454101564	-364.3504028320313	1308.749755859375	-529.2169799804689	-412.0286560058595	1306.857299804688	-492.3131408691407	-430.0798339843751	1224.72509765625	-450.4268798828126	-506.7678222656251	1212.551513671875	-501.7667541503907	-406.6604614257814	1011.369140625	-612.7354736328126	-356.8203430175782	989.0720825195315	-559.5045166015626	-345.0374145507813	1015.498779296875	-656.5811767578126	-290.5488281250001	1030.758178710938	-990.2445068359377	-289.5023803710938	1014.086120605469	-736.4693603515626	-471.654022216797	1087.135864257813	-854.1831054687502	-482.9932861328126	1059.1650390625	-883.4210205078127	-477.4102172851564	1055.690185546875	-828.126159667969	-349.4593505859376	719.5530395507814	-1087.558715820313	-315.9411621093751	641.5544433593751	-1083.937866210938	-274.2004089355469	641.0924072265626	-1056.638427734375	-346.3473205566407	590.7971801757814	-1082.627563476563	-346.5478820800782	532.1738281250001	-1094.661376953125	-340.7715759277344	502.1221923828126	-960.525573730469	-318.8207397460938	325.3667907714844	-1079.178588867188	-382.7595825195313	300.7456665039063	-1134.948364257813	-343.0538635253907	286.1555480957032	-1116.5048828125	-352.3683776855469	204.3732299804688	-1096.635986328125	-426.7829895019532	94.43544769287111	-1139.406372070313	-414.7536926269532	110.2748107910157	-1051.114013671875	-485.2597961425782	54.97835159301759	-1099.851928710938	-259.7276000976563	59.76840209960939	-1064.52001953125	-258.4679260253907	63.85927581787111	-1103.48779296875	-294.0908203125001	42.80764389038087	-1156.719482421875	-401.147430419922	794.3138427734377	-653.8215332031251	-374.1871948242188	733.6087036132814	-649.3898315429689	-340.8800659179688	730.5411376953126	-655.6082153320314	-414.3360595703126	660.5865478515626	-666.2388305664064	-411.5936279296876	508.9776306152345	-671.6789550781251	-410.8635864257814	488.7152709960939	-801.4588012695315	-364.1939086914063	343.5141601562501	-750.3568725585939	-384.9969482421876	263.8913574218751	-678.5706176757814	-359.9790954589844	262.1674194335938	-720.2265014648439	-373.1413574218751	214.2217712402344	-750.8756103515626	-419.1378784179689	84.49575042724611	-694.5857543945314	-406.0073547363282	102.5079574584961	-781.9305419921877	-480.0997314453126	43.98968887329102	-753.3762817382814	-250.1509857177735	55.94834136962892	-739.9534912109376	-254.9911041259766	54.06685256958009	-699.4650878906251	-300.7882080078126	34.48444366455079	-654.2942504882814	
2	0.005	-236.1058349609376	1691.022216796875	-868.470642089844	-359.7103271484376	1634.960205078125	-904.4253540039065	-388.194793701172	1606.99560546875	-773.7783203125002	-401.2414550781251	1525.205444335938	-838.339050292969	-457.2981872558595	1187.390991210938	-858.5529785156252	-281.5260009765626	1432.646240234375	-842.1870117187502	-310.7551269531251	1468.697998046875	-1015.683715820313	-394.2467041015626	1383.620239257813	-1134.000732421875	-376.2055969238282	1336.599975585938	-1138.04931640625	-425.977752685547	1335.509887695313	-1175.243774414063	-462.1181640625001	1250.588012695313	-1225.326904296875	-531.0531005859376	1234.111450195313	-1181.296142578125	-383.9128112792969	1037.938598632813	-1086.454833984375	-349.3504333496094	1019.776672363281	-1149.8017578125	-339.7744445800782	1036.0654296875	-1045.392333984375	-299.1668395996094	1444.964233398438	-671.3364868164064	-381.3186950683594	1354.796752929688	-533.1463623046876	-364.0048217773438	1308.5869140625	-529.4445800781251	-411.5974426269532	1306.704223632813	-492.3743896484376	-429.5733032226564	1224.571166992188	-450.4249267578126	-506.393768310547	1212.377563476563	-501.694549560547	-406.4559020996095	1011.261535644531	-612.9334716796876	-356.5116882324219	988.903991699219	-559.8240966796876	-344.9208068847657	1015.420043945313	-656.8814697265626	-290.8023681640626	1030.793823242188	-990.7280883789065	-289.5087890625001	1014.042846679688	-736.8969726562501	-471.827117919922	1087.126708984375	-854.3681640625002	-483.1364135742189	1059.16845703125	-883.579040527344	-477.1477966308595	1055.740478515625	-828.486999511719	-349.4354553222657	719.6206665039064	-1087.8623046875	-315.8420104980469	641.5779418945314	-1084.142822265625	-274.1149597167969	641.1140747070314	-1056.973754882813	-346.2459716796876	590.8197021484376	-1082.921997070313	-346.4476623535157	532.2205810546876	-1094.92724609375	-340.7417907714844	502.2019653320314	-960.8338012695315	-318.7518005371094	325.3369140625001	-1079.345581054688	-382.5943908691407	300.6654663085938	-1135.260131835938	-342.9661865234376	286.1812744140626	-1116.7412109375	-352.2505187988282	204.3962554931641	-1096.8515625	-426.5181884765626	94.36061859130861	-1139.768188476563	-414.7589721679689	110.2788238525391	-1051.421020507813	-485.0552978515626	54.78495025634767	-1100.298706054688	-259.6129760742188	60.17430114746095	-1064.487670898438	-258.2739868164063	64.2595901489258	-1103.410400390625	-293.6487731933594	43.05545043945313	-1156.7451171875	-401.1267395019532	794.3217773437502	-654.0592041015626	-374.1562194824219	733.5979003906251	-649.7167968750001	-340.8751831054688	730.5563354492189	-655.8467407226564	-414.3275451660157	660.5905151367189	-666.4865112304689	-411.5818481445314	508.9680175781251	-671.8417968750001	-410.9505004882814	488.6710815429689	-801.6033935546877	-364.2158508300782	343.4963684082032	-750.5047607421876	-385.0457458496095	263.8753967285157	-678.6817626953126	-359.9427185058594	262.1646728515626	-720.3156738281251	-373.1456909179688	214.2198028564454	-750.8988037109376	-419.138153076172	84.48400878906251	-694.5598754882814	-406.0502319335939	102.4688491821289	-781.914001464844	-480.1338806152345	43.97779846191407	-753.3922119140626	-250.1583862304688	55.93201446533205	-739.9609375000001	-254.9841308593751	54.09125900268556	-699.4661254882814	-300.7768859863282	34.48043441772462	-654.3117675781251	
3	0.01	-236.3733367919922	1691.149047851563	-868.4433593750002	-360.0672607421876	1635.031494140625	-904.3284912109377	-388.3001708984376	1606.855102539063	-773.6525878906252	-401.3820190429689	1525.162353515625	-838.4285278320315	-457.4193725585939	1187.389892578125	-858.7800292968752	-281.6884155273438	1432.648681640625	-842.4248046875002	-311.1157836914063	1468.818603515625	-1015.928894042969	-394.7701721191407	1383.708984375	-1134.114868164063	-376.8033447265626	1336.698974609375	-1138.273193359375	-426.6169738769532	1335.65966796875	-1175.416748046875	-462.6920776367189	1250.695922851563	-1225.406616210938	-531.5779418945314	1234.162719726563	-1181.275390625	-384.2088317871095	1038.01025390625	-1086.7421875	-349.6874694824219	1019.88916015625	-1150.178344726563	-340.0840759277344	1036.050537109375	-1045.747192382813	-299.0690612792969	1444.952026367188	-671.6005859375001	-380.9165954589844	1354.646850585938	-533.2994384765626	-363.6847534179688	1308.4521484375	-529.6914062500001	-411.1302795410157	1306.548095703125	-492.4762573242189	-429.0556030273439	1224.418334960938	-450.4866943359376	-505.966522216797	1212.220581054688	-501.6971130371095	-406.2467041015626	1011.161865234375	-613.1831054687501	-356.2378234863282	988.7512207031252	-560.1694946289064	-344.8331604003907	1015.321716308594	-657.2095947265626	-290.9713439941407	1030.876220703125	-991.1387939453127	-289.5329589843751	1013.993896484375	-737.2941894531251	-471.8924560546876	1087.0888671875	-854.5694580078127	-483.225067138672	1059.117553710938	-883.8001098632815	-488.3652648925782	1056.010131835938	-827.7362060546877	-349.3150939941407	719.6374511718751	-1088.095581054688	-315.8816223144532	641.6531982421876	-1084.396362304688	-274.0682678222657	641.1486816406251	-1057.190307617188	-346.1905822753907	590.8713378906251	-1083.18212890625	-346.4848937988282	532.2053222656251	-1095.144775390625	-340.8206176757813	502.239227294922	-961.1260986328127	-318.7267150878907	325.3735961914063	-1079.603881835938	-382.5214843750001	300.6617736816407	-1135.607177734375	-342.8414916992188	286.1624450683594	-1117.049194335938	-352.1200866699219	204.3955993652344	-1097.103881835938	-426.226776123047	94.25572204589845	-1140.177734375	-414.7015380859376	110.2449645996094	-1051.786865234375	-484.7746887207032	54.50050735473634	-1100.75390625	-259.4789428710938	60.58589935302736	-1064.4091796875	-258.0456542968751	64.69720458984376	-1103.412841796875	-293.2105407714844	43.34668350219727	-1156.820434570313	-401.1239624023439	794.336853027344	-654.3316650390626	-374.1470947265626	733.6288452148439	-650.1201171875001	-340.7184753417969	730.3319702148439	-656.5883789062501	-414.3367614746095	660.5672607421876	-666.7324829101564	-411.5541381835939	508.9678955078126	-672.0477905273439	-410.9328918457032	488.6323242187501	-801.8621826171877	-364.2611389160157	343.4866333007813	-750.6507568359376	-385.0751037597657	263.9672241210938	-678.7267456054689	-359.9600830078126	262.2158508300782	-720.3948364257814	-373.1797790527344	214.2267608642579	-750.9531250000001	-419.1329956054689	84.4946975708008	-694.5953979492189	-406.0208435058595	102.4397811889649	-781.9594726562502	-480.1345520019532	43.95349884033204	-753.3948364257814	-250.1507263183594	55.93862915039064	-739.9633178710939	-254.9762115478516	54.07137680053712	-699.4580078125001	-300.7867736816407	34.48490905761719	-654.3001708984376	
4	0.015	-236.6194000244141	1691.201538085938	-868.4470825195315	-360.4148559570313	1635.151977539063	-904.3021240234377	-388.4000244140626	1606.6962890625	-773.718688964844	-401.5623168945314	1525.157470703125	-838.6114501953127	-457.631072998047	1187.347900390625	-859.0994262695315	-281.8132934570313	1432.656372070313	-842.7559204101565	-311.5424804687501	1468.933837890625	-1016.2724609375	-395.3648681640626	1383.79638671875	-1134.3505859375	-377.4053649902344	1336.821044921875	-1138.77099609375	-427.2325439453126	1335.7490234375	-1175.587646484375	-463.2720642089845	1250.736694335938	-1225.511840820313	-532.1884765625001	1234.18017578125	-1181.258178710938	-384.4631652832032	1038.039184570313	-1087.002563476563	-350.1181030273438	1019.990051269531	-1150.575927734375	-340.1655273437501	1035.882690429688	-1046.1357421875	-299.0676879882813	1444.828857421875	-671.9475708007814	-380.5487976074219	1354.520141601563	-533.5199584960939	-363.3266906738282	1308.284545898438	-529.9921875000001	-410.7180175781251	1306.446899414063	-492.667938232422	-428.6033935546876	1224.247680664063	-450.5916137695314	-505.654510498047	1212.107788085938	-501.7174377441407	-406.0783996582032	1011.080200195313	-613.4699096679689	-355.9499816894532	988.6326904296877	-560.5513916015626	-344.6791992187501	1015.242919921875	-657.5567626953126	-290.9607543945313	1030.978637695313	-991.5332031250002	-289.5601501464844	1013.962829589844	-737.7479858398439	-471.8872070312501	1087.025512695313	-854.859802246094	-483.3062438964845	1059.090087890625	-884.044372558594	-477.5644836425782	1055.596557617188	-828.8950195312502	-349.4679565429688	719.7043457031251	-1088.5380859375	-315.9190673828126	641.6466064453126	-1084.622192382813	-274.1534118652344	641.1087036132814	-1057.45068359375	-346.2160339355469	590.8654785156251	-1083.456787109375	-346.5612182617188	532.1589965820314	-1095.403442382813	-341.0665893554688	502.2427978515626	-961.417175292969	-318.7025451660157	325.3356018066407	-1079.882202148438	-382.3322448730469	300.5687866210938	-1135.938598632813	-342.8221130371094	286.1608581542969	-1117.307495117188	-351.9747009277344	204.3734893798829	-1097.390502929688	-425.8999633789064	94.0643768310547	-1140.47265625	-414.5906982421876	110.1592559814453	-1052.1201171875	-484.4575500488282	54.15943908691408	-1101.198974609375	-259.2980346679688	60.8552932739258	-1064.479736328125	-257.7422180175782	65.09355926513673	-1103.472290039063	-292.8139038085938	43.52633666992188	-1156.942138671875	-401.0758056640626	794.3152465820315	-654.6176147460939	-373.8512878417969	733.7638549804689	-650.9831542968751	-340.6980285644532	730.3228149414064	-656.8875122070314	-414.3233947753907	660.5938720703126	-667.0071411132814	-411.5509033203126	508.971649169922	-672.2761840820314	-410.9804077148439	488.5359191894532	-802.012390136719	-364.2175598144532	343.4845275878907	-750.7709350585939	-385.1812744140626	263.9358825683594	-678.9108886718751	-360.0175170898438	262.1105346679688	-720.5084838867189	-373.1408081054688	214.2084350585938	-751.0712890625001	-419.1563110351564	84.50489807128908	-694.5955200195314	-406.0152893066407	102.4146957397461	-781.9718017578127	-480.1300048828126	43.95426559448243	-753.3608398437501	-250.1473083496094	55.92618560791017	-739.9838867187501	-254.9778289794922	54.07174682617189	-699.4618530273439	-300.7774353027344	34.48359680175782	-654.3063354492189	
